<svg width="86" height="54" viewBox="0 0 86 54" fill="none" xmlns="http://www.w3.org/2000/svg">
<path opacity="0.28" d="M19.752 53.292C14.136 53.292 9.552 51.396 6 47.604C2.448 43.812 0.672 38.964 0.672 33.06V20.676C0.672 14.82 2.448 9.996 6 6.204C9.552 2.412 14.136 0.515996 19.752 0.515996C25.32 0.515996 29.88 2.412 33.432 6.204C36.984 9.996 38.76 14.82 38.76 20.676V33.06C38.76 38.964 36.984 43.812 33.432 47.604C29.88 51.396 25.32 53.292 19.752 53.292ZM13.056 40.764C14.736 42.636 16.968 43.572 19.752 43.572C22.536 43.572 24.744 42.636 26.376 40.764C28.056 38.892 28.896 36.324 28.896 33.06V20.676C28.896 17.412 28.056 14.868 26.376 13.044C24.744 11.172 22.536 10.236 19.752 10.236C16.968 10.236 14.736 11.172 13.056 13.044C11.376 14.868 10.536 17.412 10.536 20.676V33.06C10.536 36.324 11.376 38.892 13.056 40.764ZM69.1339 52.5V40.836H43.7179V32.844L70.2139 1.38H78.9979V31.764H85.6939V40.836H78.9979V52.5H69.1339ZM55.8139 31.764H69.1339V15.996L55.8139 31.764Z" fill="#5C9FF8"/>
</svg>
