<svg width="82" height="54" viewBox="0 0 82 54" fill="none" xmlns="http://www.w3.org/2000/svg">
<path opacity="0.28" d="M19.752 53.292C14.136 53.292 9.552 51.396 6 47.604C2.448 43.812 0.672 38.964 0.672 33.06V20.676C0.672 14.82 2.448 9.996 6 6.204C9.552 2.412 14.136 0.515996 19.752 0.515996C25.32 0.515996 29.88 2.412 33.432 6.204C36.984 9.996 38.76 14.82 38.76 20.676V33.06C38.76 38.964 36.984 43.812 33.432 47.604C29.88 51.396 25.32 53.292 19.752 53.292ZM13.056 40.764C14.736 42.636 16.968 43.572 19.752 43.572C22.536 43.572 24.744 42.636 26.376 40.764C28.056 38.892 28.896 36.324 28.896 33.06V20.676C28.896 17.412 28.056 14.868 26.376 13.044C24.744 11.172 22.536 10.236 19.752 10.236C16.968 10.236 14.736 11.172 13.056 13.044C11.376 14.868 10.536 17.412 10.536 20.676V33.06C10.536 36.324 11.376 38.892 13.056 40.764ZM63.9499 53.292C58.8139 53.292 54.3979 51.756 50.7019 48.684C47.0539 45.564 45.1339 41.316 44.9419 35.94H54.7339C54.9739 38.388 55.9099 40.284 57.5419 41.628C59.2219 42.924 61.3579 43.572 63.9499 43.572C66.2539 43.572 68.1019 42.996 69.4939 41.844C70.9339 40.692 71.6779 39.132 71.7259 37.164C71.7259 35.004 70.9819 33.324 69.4939 32.124C68.0059 30.924 65.9659 30.324 63.3739 30.324H59.0539V22.26H62.9419C65.2939 22.26 67.0939 21.708 68.3419 20.604C69.5899 19.5 70.2379 18.012 70.2859 16.14C70.3339 14.412 69.7099 12.996 68.4139 11.892C67.1659 10.788 65.5819 10.236 63.6619 10.236C61.3579 10.236 59.4619 10.908 57.9739 12.252C56.4859 13.596 55.7659 15.324 55.8139 17.436H45.8779C45.8779 12.348 47.6539 8.268 51.2059 5.196C54.7579 2.076 58.9099 0.515996 63.6619 0.515996C68.7499 0.515996 72.7819 1.956 75.7579 4.836C78.7339 7.668 80.2219 11.172 80.2219 15.348C80.2219 17.7 79.6699 19.86 78.5659 21.828C77.4619 23.748 76.1179 25.26 74.5339 26.364C76.5979 27.324 78.3019 28.812 79.6459 30.828C80.9899 32.844 81.6619 35.22 81.6619 37.956C81.6619 42.468 80.0299 46.164 76.7659 49.044C73.5019 51.876 69.2299 53.292 63.9499 53.292Z" fill="#5C9FF8"/>
</svg>
