<svg width="81" height="54" viewBox="0 0 81 54" fill="none" xmlns="http://www.w3.org/2000/svg">
<path opacity="0.28" d="M19.752 53.292C14.136 53.292 9.552 51.396 6 47.604C2.448 43.812 0.672 38.964 0.672 33.06V20.676C0.672 14.82 2.448 9.996 6 6.204C9.552 2.412 14.136 0.515996 19.752 0.515996C25.32 0.515996 29.88 2.412 33.432 6.204C36.984 9.996 38.76 14.82 38.76 20.676V33.06C38.76 38.964 36.984 43.812 33.432 47.604C29.88 51.396 25.32 53.292 19.752 53.292ZM13.056 40.764C14.736 42.636 16.968 43.572 19.752 43.572C22.536 43.572 24.744 42.636 26.376 40.764C28.056 38.892 28.896 36.324 28.896 33.06V20.676C28.896 17.412 28.056 14.868 26.376 13.044C24.744 11.172 22.536 10.236 19.752 10.236C16.968 10.236 14.736 11.172 13.056 13.044C11.376 14.868 10.536 17.412 10.536 20.676V33.06C10.536 36.324 11.376 38.892 13.056 40.764ZM80.2219 42.78V52.5H45.3739V49.116C45.3739 47.724 45.5179 46.38 45.8059 45.084C46.0939 43.788 46.4299 42.66 46.8139 41.7C47.2459 40.692 47.8699 39.66 48.6859 38.604C49.5019 37.548 50.1979 36.684 50.7739 36.012C51.3499 35.34 52.2139 34.524 53.3659 33.564C54.5659 32.604 55.4779 31.908 56.1019 31.476C56.7259 30.996 57.7099 30.3 59.0539 29.388C60.3979 28.428 61.3339 27.756 61.8619 27.372C67.2379 23.628 69.9259 20.124 69.9259 16.86C69.9259 14.94 69.3259 13.356 68.1259 12.108C66.9259 10.86 65.2699 10.236 63.1579 10.236C60.9019 10.236 59.0299 10.932 57.5419 12.324C56.1019 13.668 55.4059 15.372 55.4539 17.436H45.5179C45.5179 12.444 47.1979 8.388 50.5579 5.268C53.9659 2.1 58.2379 0.515996 63.3739 0.515996C67.9339 0.515996 71.7979 1.908 74.9659 4.692C78.1819 7.476 79.7899 11.34 79.7899 16.284C79.7899 20.364 78.9019 23.724 77.1259 26.364C75.3979 28.956 72.6859 31.596 68.9899 34.284C68.6539 34.524 67.7899 35.124 66.3979 36.084C65.0059 36.996 63.9499 37.716 63.2299 38.244C62.5099 38.772 61.6939 39.468 60.7819 40.332C59.9179 41.196 59.3419 42.012 59.0539 42.78H80.2219Z" fill="#5C9FF8"/>
</svg>
