<svg width="134" height="32" viewBox="0 0 134 32" fill="none" xmlns="http://www.w3.org/2000/svg">
<path d="M8.59961 8.22266C8.79883 7.82422 9.11979 7.625 9.5625 7.625C10.0052 7.625 10.3262 7.82422 10.5254 8.22266L12.6836 12.6055L17.5312 13.3359C17.974 13.3802 18.2617 13.6126 18.3945 14.0332C18.5273 14.4538 18.4388 14.819 18.1289 15.1289L14.6094 18.5488L15.4395 23.3965C15.5059 23.8171 15.362 24.1491 15.0078 24.3926C14.6536 24.6582 14.2884 24.6914 13.9121 24.4922L9.5625 22.2344L5.21289 24.4922C4.83659 24.7135 4.47135 24.6914 4.11719 24.4258C3.76302 24.1602 3.61914 23.8171 3.68555 23.3965L4.51562 18.5488L0.996094 15.1289C0.686198 14.819 0.597656 14.4538 0.730469 14.0332C0.863281 13.6126 1.15104 13.3802 1.59375 13.3359L6.44141 12.6055L8.59961 8.22266ZM27.7246 8.22266C27.9238 7.82422 28.2448 7.625 28.6875 7.625C29.1302 7.625 29.4512 7.82422 29.6504 8.22266L31.8086 12.6055L36.6562 13.3359C37.099 13.3802 37.3867 13.6126 37.5195 14.0332C37.6523 14.4538 37.5638 14.819 37.2539 15.1289L33.7344 18.5488L34.5645 23.3965C34.6309 23.8171 34.487 24.1491 34.1328 24.3926C33.7786 24.6582 33.4134 24.6914 33.0371 24.4922L28.6875 22.2344L24.3379 24.4922C23.9616 24.7135 23.5964 24.6914 23.2422 24.4258C22.888 24.1602 22.7441 23.8171 22.8105 23.3965L23.6406 18.5488L20.1211 15.1289C19.8112 14.819 19.7227 14.4538 19.8555 14.0332C19.9883 13.6126 20.276 13.3802 20.7188 13.3359L25.5664 12.6055L27.7246 8.22266ZM46.8496 8.22266C47.0488 7.82422 47.3698 7.625 47.8125 7.625C48.2552 7.625 48.5762 7.82422 48.7754 8.22266L50.9336 12.6055L55.7812 13.3359C56.224 13.3802 56.5117 13.6126 56.6445 14.0332C56.7773 14.4538 56.6888 14.819 56.3789 15.1289L52.8594 18.5488L53.6895 23.3965C53.7559 23.8171 53.612 24.1491 53.2578 24.3926C52.9036 24.6582 52.5384 24.6914 52.1621 24.4922L47.8125 22.2344L43.4629 24.4922C43.0866 24.7135 42.7214 24.6914 42.3672 24.4258C42.013 24.1602 41.8691 23.8171 41.9355 23.3965L42.7656 18.5488L39.2461 15.1289C38.9362 14.819 38.8477 14.4538 38.9805 14.0332C39.1133 13.6126 39.401 13.3802 39.8438 13.3359L44.6914 12.6055L46.8496 8.22266ZM65.9746 8.22266C66.1738 7.82422 66.4948 7.625 66.9375 7.625C67.3802 7.625 67.7012 7.82422 67.9004 8.22266L70.0586 12.6055L74.9062 13.3359C75.349 13.3802 75.6367 13.6126 75.7695 14.0332C75.9023 14.4538 75.8138 14.819 75.5039 15.1289L71.9844 18.5488L72.8145 23.3965C72.8809 23.8171 72.737 24.1491 72.3828 24.3926C72.0286 24.6582 71.6634 24.6914 71.2871 24.4922L66.9375 22.2344L62.5879 24.4922C62.2116 24.7135 61.8464 24.6914 61.4922 24.4258C61.138 24.1602 60.9941 23.8171 61.0605 23.3965L61.8906 18.5488L58.3711 15.1289C58.0612 14.819 57.9727 14.4538 58.1055 14.0332C58.2383 13.6126 58.526 13.3802 58.9688 13.3359L63.8164 12.6055L65.9746 8.22266ZM85.0996 8.22266C85.2988 7.82422 85.6198 7.625 86.0625 7.625C86.5052 7.625 86.8262 7.82422 87.0254 8.22266L89.1836 12.6055L94.0312 13.3359C94.474 13.3802 94.7617 13.6126 94.8945 14.0332C95.0273 14.4538 94.9388 14.819 94.6289 15.1289L91.1094 18.5488L91.9395 23.3965C92.0059 23.8171 91.862 24.1491 91.5078 24.3926C91.1536 24.6582 90.7884 24.6914 90.4121 24.4922L86.0625 22.2344L81.7129 24.4922C81.3366 24.7135 80.9714 24.6914 80.6172 24.4258C80.263 24.1602 80.1191 23.8171 80.1855 23.3965L81.0156 18.5488L77.4961 15.1289C77.1862 14.819 77.0977 14.4538 77.2305 14.0332C77.3633 13.6126 77.651 13.3802 78.0938 13.3359L82.9414 12.6055L85.0996 8.22266Z" fill="#FC6441"/>
<path d="M99.8799 25.094C99.2792 24.4027 98.7465 23.649 98.2819 22.833C97.8285 22.0283 97.4772 21.1387 97.2279 20.164C96.9785 19.178 96.8539 18.0843 96.8539 16.883C96.8539 15.6817 96.9785 14.5937 97.2279 13.619C97.4885 12.6443 97.8455 11.7603 98.2989 10.967C98.7635 10.1737 99.2905 9.454 99.8799 8.808H101.75C101.047 9.56733 100.447 10.355 99.9479 11.171C99.4605 11.987 99.0865 12.8653 98.8259 13.806C98.5765 14.7353 98.4519 15.761 98.4519 16.883C98.4519 18.005 98.5765 19.042 98.8259 19.994C99.0752 20.9347 99.4435 21.8187 99.9309 22.646C100.43 23.4847 101.036 24.3007 101.75 25.094H99.8799ZM102.837 19.059V17.053L107.988 9.284L109.127 10.185L104.316 17.461L104.469 17.767H112.493V19.059H102.837ZM109.314 22V13.211H110.844V22H109.314ZM114.17 22V19.926H116.142V22H114.17ZM119.826 22L125.079 11.137L124.977 10.984H118.194V9.59H126.524V11.562L121.526 22H119.826ZM118.194 12.956V9.59H119.554V12.956H118.194ZM129.282 25.094H127.412C128.126 24.3007 128.726 23.4847 129.214 22.646C129.712 21.8187 130.086 20.9347 130.336 19.994C130.585 19.042 130.71 18.005 130.71 16.883C130.71 15.761 130.579 14.7353 130.319 13.806C130.069 12.8653 129.695 11.987 129.197 11.171C128.709 10.355 128.114 9.56733 127.412 8.808H129.282C129.871 9.454 130.392 10.1737 130.846 10.967C131.31 11.7603 131.667 12.6443 131.917 13.619C132.177 14.5937 132.308 15.6817 132.308 16.883C132.308 18.0843 132.183 19.178 131.934 20.164C131.684 21.1387 131.327 22.0283 130.863 22.833C130.409 23.649 129.882 24.4027 129.282 25.094Z" fill="#333931"/>
</svg>
